<svg width="22" height="22" viewBox="0 0 22 22" fill="none" xmlns="http://www.w3.org/2000/svg">
<path d="M11 15.5833V19.25M7.33333 19.25H14.6667M5.68333 15.5833H16.3167C17.3434 15.5833 17.8569 15.5833 18.249 15.3835C18.5939 15.2078 18.8744 14.9273 19.0502 14.5823C19.25 14.1902 19.25 13.6768 19.25 12.65V5.68333C19.25 4.65657 19.25 4.14319 19.0502 3.75102C18.8744 3.40605 18.5939 3.12559 18.249 2.94982C17.8569 2.75 17.3434 2.75 16.3167 2.75H5.68333C4.65657 2.75 4.14319 2.75 3.75102 2.94982C3.40605 3.12559 3.12559 3.40605 2.94982 3.75102C2.75 4.14319 2.75 4.65657 2.75 5.68333V12.65C2.75 13.6768 2.75 14.1902 2.94982 14.5823C3.12559 14.9273 3.40605 15.2078 3.75102 15.3835C4.14319 15.5833 4.65657 15.5833 5.68333 15.5833Z" stroke="#CFDBFF" stroke-width="2" stroke-linecap="round"/>
</svg>
