<svg width="21" height="21" viewBox="0 0 21 21" fill="none" xmlns="http://www.w3.org/2000/svg">
<g clip-path="url(#clip0_9_6)">
<path d="M10.5 0.875009C8.59636 0.875009 6.73546 1.43951 5.15264 2.49711C3.56982 3.55472 2.33616 5.05794 1.60766 6.81668C0.87917 8.57542 0.688563 10.5107 1.05995 12.3778C1.43133 14.2448 2.34802 15.9598 3.6941 17.3059C5.04018 18.652 6.75519 19.5687 8.62226 19.9401C10.4893 20.3115 12.4246 20.1208 14.1833 19.3923C15.9421 18.6639 17.4453 17.4302 18.5029 15.8474C19.5605 14.2646 20.125 12.4037 20.125 10.5C20.1308 9.23442 19.8858 7.98021 19.4041 6.80984C18.9225 5.63947 18.2137 4.57611 17.3188 3.68119C16.4239 2.78627 15.3605 2.07752 14.1902 1.59587C13.0198 1.11422 11.7656 0.869217 10.5 0.875009ZM17.5438 7.00001H15.4C15.1455 5.77268 14.7027 4.59207 14.0875 3.50001C15.5748 4.27986 16.7827 5.50303 17.5438 7.00001ZM18.375 10.5C18.3697 11.0898 18.2963 11.677 18.1563 12.25H15.6625C15.7063 11.6813 15.75 11.1125 15.75 10.5C15.75 9.88751 15.7063 9.31876 15.6625 8.75001H18.1563C18.2963 9.32297 18.3697 9.9102 18.375 10.5ZM2.625 10.5C2.63027 9.9102 2.70367 9.32297 2.84375 8.75001H5.3375C5.29375 9.31876 5.25 9.88751 5.25 10.5C5.25 11.1125 5.29375 11.6813 5.3375 12.25H2.84375C2.70367 11.677 2.63027 11.0898 2.625 10.5ZM7 10.5C7 9.88751 7.04375 9.31876 7.0875 8.75001H9.625V12.25H7.0875C7.04375 11.6813 7 11.1125 7 10.5ZM11.375 2.93126C11.9189 3.37513 12.3656 3.92613 12.6875 4.55001C13.1054 5.32036 13.4146 6.14485 13.6063 7.00001H11.375V2.93126ZM9.625 2.93126V7.00001H7.39375C7.58545 6.14485 7.89464 5.32036 8.3125 4.55001C8.63437 3.92613 9.08113 3.37513 9.625 2.93126ZM9.625 14V18.0688C9.08113 17.6249 8.63437 17.0739 8.3125 16.45C7.89464 15.6797 7.58545 14.8552 7.39375 14H9.625ZM11.375 18.0688V14H13.6063C13.4146 14.8552 13.1054 15.6797 12.6875 16.45C12.3656 17.0739 11.9189 17.6249 11.375 18.0688ZM11.375 12.25V8.75001H13.9125C13.9563 9.31876 14 9.88751 14 10.5C14 11.1125 13.9563 11.6813 13.9125 12.25H11.375ZM6.9125 3.50001C6.29727 4.59207 5.85454 5.77268 5.6 7.00001H3.45625C4.21734 5.50303 5.42522 4.27986 6.9125 3.50001ZM3.45625 14H5.6C5.85454 15.2273 6.29727 16.4079 6.9125 17.5C5.42522 16.7202 4.21734 15.497 3.45625 14ZM14.0875 17.5C14.7027 16.4079 15.1455 15.2273 15.4 14H17.5438C16.7827 15.497 15.5748 16.7202 14.0875 17.5Z" fill="#284DB7"/>
</g>
<defs>
<clipPath id="clip0_9_6">
<rect width="21" height="21" fill="white"/>
</clipPath>
</defs>
</svg>
