<svg width="20" height="21" viewBox="0 0 20 21" fill="none" xmlns="http://www.w3.org/2000/svg">
<path fill-rule="evenodd" clip-rule="evenodd" d="M0.833374 4.66669C0.833374 3.28598 1.95267 2.16669 3.33337 2.16669H7.13211C8.20818 2.16669 9.16354 2.85526 9.50379 3.87612L9.76737 4.66669H16.6667C17.5872 4.66669 18.3334 5.41288 18.3334 6.33335V8.00803C19.2896 8.10138 19.984 8.99669 19.808 9.96485L18.4444 17.4649C18.3003 18.2573 17.61 18.8334 16.8045 18.8334H2.50004C1.57957 18.8334 0.833374 18.0872 0.833374 17.1667V4.66669ZM16.6667 8.00002V6.33335H9.76737C9.04996 6.33335 8.41304 5.8743 8.1862 5.19374L7.92267 4.40316C7.80925 4.06288 7.4908 3.83335 7.13211 3.83335H3.33337C2.87314 3.83335 2.50004 4.20645 2.50004 4.66669V10.7258L2.79528 9.32335C2.95765 8.5521 3.63806 8.00002 4.4262 8.00002H16.6667ZM2.80532 17.1667C2.84818 17.0924 2.88021 17.0102 2.89883 16.9217L4.4262 9.66669H17.5H18.1682L16.8045 17.1667H2.80532Z" fill="#284DB7"/>
</svg>
