<svg width="19" height="19" viewBox="0 0 19 19" fill="none" xmlns="http://www.w3.org/2000/svg">
<g clip-path="url(#clip0_9_12)">
<path d="M9.5 0C5.59323 0 2.41479 3.17965 2.41479 7.08802C2.41479 12.9112 8.79476 18.5971 9.06639 18.8364C9.19037 18.9454 9.34512 19.0001 9.5 19.0001C9.65488 19.0001 9.8097 18.9455 9.93361 18.8364C10.2051 18.5972 16.5852 12.9113 16.5852 7.08802C16.5852 3.17965 13.4068 0 9.5 0ZM13.6365 6.68582L12.0436 8.24248L12.4197 10.4406C12.4618 10.6868 12.3605 10.9356 12.1583 11.0823C12.0441 11.1652 11.909 11.2072 11.773 11.2072C11.6684 11.2072 11.5634 11.1822 11.4672 11.1316L9.50007 10.0947L7.5329 11.1316C7.31187 11.2481 7.04395 11.2289 6.84173 11.0823C6.63958 10.9356 6.53824 10.6868 6.58034 10.4406L6.9565 8.24248L5.36357 6.68582C5.18515 6.51143 5.12098 6.25087 5.19826 6.0136C5.27548 5.77632 5.48064 5.6034 5.72751 5.56738L7.92729 5.24694L8.91145 3.24772C9.02187 3.02343 9.25006 2.88141 9.5 2.88141C9.74995 2.88141 9.9782 3.02343 10.0886 3.24772L11.0728 5.24701L13.2726 5.56745C13.5194 5.60346 13.7246 5.77638 13.8018 6.01366C13.879 6.25087 13.8149 6.51143 13.6365 6.68582Z" fill="#284DB7"/>
</g>
<defs>
<clipPath id="clip0_9_12">
<rect width="19" height="19" fill="white"/>
</clipPath>
</defs>
</svg>
