<svg width="19" height="19" viewBox="0 0 19 19" fill="none" xmlns="http://www.w3.org/2000/svg">
<g clip-path="url(#clip0_9_18)">
<path d="M6.34942 2.09C5.68499 2.09 5.08174 2.36626 4.64683 2.80839C4.20793 3.24178 3.93395 3.84199 3.93395 4.50205C3.93395 5.14311 4.19292 5.72679 4.60978 6.15695L2.66304 10.0706C2.63644 10.0675 2.60984 10.0647 2.58324 10.0624C2.52016 10.0537 2.45746 10.0445 2.3921 10.0445C1.07787 10.0447 0 11.1226 0 12.4368C0 13.7511 1.07787 14.8308 2.3921 14.8308C3.70614 14.8308 4.7842 13.7511 4.7842 12.4368C4.7842 11.7861 4.51877 11.1944 4.0926 10.7618L6.02946 6.86717C6.12446 6.87876 6.22041 6.88636 6.31826 6.88636C6.68173 6.88636 7.02525 6.80105 7.33362 6.65304L7.33913 6.65076L14.4223 13.6207C14.2873 13.9218 14.2169 14.2478 14.2158 14.5777C14.2158 15.8918 15.2939 16.9698 16.6079 16.9698C17.708 16.9698 18.6398 16.2136 18.9151 15.1966C18.9268 15.1553 18.9379 15.1137 18.9478 15.0716L18.9533 15.0434C18.9791 14.9239 18.9985 14.8021 19.0055 14.6771C19.0233 14.5897 19.0233 14.4996 19.0055 14.4123C18.9438 13.3251 18.148 12.4224 17.1078 12.2086L17.0704 11.7048L16.0402 11.7823L16.074 12.2301C15.8735 12.2784 15.6801 12.3526 15.4987 12.4509L8.47913 5.54306C8.62266 5.25789 8.70664 4.94649 8.72594 4.62783L9.92826 4.67609L9.96816 3.64439L8.56292 3.58853C8.20629 2.71358 7.34749 2.09 6.34942 2.09ZM16.0014 2.09C14.6874 2.09 13.6093 3.16787 13.6093 4.4821C13.6093 5.13817 13.8806 5.73116 14.3142 6.16208C14.6705 6.52099 15.1166 6.7317 15.6024 6.82784C15.6243 6.83164 15.6457 6.83677 15.668 6.84L15.7299 7.66384L16.7601 7.58632L16.6978 6.75754C17.674 6.45582 18.395 5.55275 18.395 4.4821C18.395 3.16787 17.3157 2.09 16.0014 2.09ZM15.9976 3.42437C16.5878 3.42437 17.0517 3.88892 17.0517 4.47906C17.0517 5.06939 16.5878 5.53337 15.9974 5.53337C15.4073 5.53337 14.9429 5.06939 14.9429 4.47906C14.9429 3.88892 15.4073 3.42456 15.9974 3.42456L15.9976 3.42437ZM6.31826 3.44755C6.90859 3.44755 7.37276 3.91191 7.37276 4.50205C7.37276 5.09238 6.90859 5.55655 6.31826 5.55655C5.72793 5.55655 5.26395 5.09238 5.26395 4.50205C5.26395 3.91191 5.72793 3.44755 6.31826 3.44755ZM10.9999 3.68467L10.96 4.71637L13.0228 4.79864L13.0633 3.76694L10.9999 3.68467ZM16.8378 8.61612L15.8076 8.69364L15.9628 10.754L16.993 10.6763L16.8378 8.61612ZM2.3883 11.3829C2.97844 11.3829 3.44242 11.8473 3.44242 12.4374C3.44242 13.0279 2.97844 13.4919 2.38811 13.4919C1.79797 13.4919 1.33361 13.0279 1.33361 12.4374C1.33361 11.8473 1.79816 11.3829 2.3883 11.3829ZM16.6345 13.49C17.2246 13.49 17.6888 13.9544 17.6888 14.5445C17.6888 15.1348 17.2246 15.599 16.6343 15.599C16.0442 15.599 15.5798 15.1348 15.5798 14.5445C15.5798 13.9544 16.0444 13.49 16.6345 13.49Z" fill="#284DB7"/>
</g>
<defs>
<clipPath id="clip0_9_18">
<rect width="19" height="19" fill="white"/>
</clipPath>
</defs>
</svg>
