<svg width="25" height="25" viewBox="0 0 25 25" fill="none" xmlns="http://www.w3.org/2000/svg">
<path fill-rule="evenodd" clip-rule="evenodd" d="M12.049 10.3016C12.7599 9.27213 12.6188 7.87886 11.7156 7.01302C10.7999 6.1334 9.39937 5.99925 8.33332 6.68907C7.89566 6.97196 7.55222 7.37886 7.34686 7.85782C7.14445 8.3321 7.0914 8.85679 7.19477 9.36198C7.2986 9.8695 7.55265 10.3341 7.92394 10.6953C8.30231 11.061 8.77902 11.3086 9.29582 11.4078C9.81618 11.5094 10.3548 11.4584 10.8469 11.2609C11.3331 11.0664 11.7513 10.7326 12.049 10.3016Z" stroke="#CFDBFF" stroke-width="2" stroke-linecap="round" stroke-linejoin="round"/>
<path fill-rule="evenodd" clip-rule="evenodd" d="M12.9511 18.6349C12.24 17.6054 12.3813 16.2122 13.2844 15.3464C14.2001 14.4668 15.6006 14.3326 16.6667 15.0224C17.1044 15.3053 17.4477 15.7122 17.6531 16.1912C17.8555 16.6654 17.9086 17.1901 17.8052 17.6953C17.7014 18.2028 17.4473 18.6674 17.0761 19.0287C16.6977 19.3944 16.2209 19.642 15.7042 19.7412C15.1847 19.8418 14.6473 19.7904 14.1563 19.5933C13.669 19.3994 13.2497 19.0661 12.9511 18.6349Z" stroke="#CFDBFF" stroke-width="2" stroke-linecap="round" stroke-linejoin="round"/>
<path d="M12.5 8.07349C12.0686 8.07349 11.7188 8.42326 11.7188 8.85474C11.7188 9.28621 12.0686 9.63599 12.5 9.63599V8.07349ZM19.7917 9.63599C20.2231 9.63599 20.5729 9.28621 20.5729 8.85474C20.5729 8.42326 20.2231 8.07349 19.7917 8.07349V9.63599ZM7.14272 9.63599C7.57419 9.63599 7.92397 9.28621 7.92397 8.85474C7.92397 8.42326 7.57419 8.07349 7.14272 8.07349V9.63599ZM5.20834 8.07349C4.77687 8.07349 4.42709 8.42326 4.42709 8.85474C4.42709 9.28621 4.77687 9.63599 5.20834 9.63599V8.07349ZM12.5 17.9693C12.9315 17.9693 13.2813 17.6195 13.2813 17.1881C13.2813 16.7566 12.9315 16.4068 12.5 16.4068V17.9693ZM5.20834 16.4068C4.77687 16.4068 4.42709 16.7566 4.42709 17.1881C4.42709 17.6195 4.77687 17.9693 5.20834 17.9693V16.4068ZM17.8573 16.4068C17.4258 16.4068 17.0761 16.7566 17.0761 17.1881C17.0761 17.6195 17.4258 17.9693 17.8573 17.9693V16.4068ZM19.7917 17.9693C20.2231 17.9693 20.5729 17.6195 20.5729 17.1881C20.5729 16.7566 20.2231 16.4068 19.7917 16.4068V17.9693ZM12.5 9.63599H19.7917V8.07349H12.5V9.63599ZM7.14272 8.07349H5.20834V9.63599H7.14272V8.07349ZM12.5 16.4068H5.20834V17.9693H12.5V16.4068ZM17.8573 17.9693H19.7917V16.4068H17.8573V17.9693Z" fill="#CFDBFF"/>
</svg>
